<mxfile host="app.diagrams.net" modified="2021-10-01T04:44:37.505Z" agent="5.0 (Windows NT 10.0; Win64; x64) AppleWebKit/537.36 (KHTML, like Gecko) Chrome/94.0.4606.61 Safari/537.36" etag="B3vBGw6TVzVEA6BxIKVF" version="15.2.9" type="github">
  <diagram id="R2lEEEUBdFMjLlhIrx00" name="Page-1">
    <mxGraphModel dx="2090" dy="643" grid="1" gridSize="10" guides="1" tooltips="1" connect="1" arrows="1" fold="1" page="1" pageScale="1" pageWidth="850" pageHeight="1100" math="0" shadow="0" extFonts="Permanent Marker^https://fonts.googleapis.com/css?family=Permanent+Marker">
      <root>
        <mxCell id="0" />
        <mxCell id="1" parent="0" />
        <mxCell id="MiLcPNVyR3an7ZEGbD_Q-14" value="N" style="edgeStyle=orthogonalEdgeStyle;rounded=0;orthogonalLoop=1;jettySize=auto;html=1;startArrow=none;startFill=0;endArrow=none;endFill=0;" edge="1" parent="1" source="QBSgT8XTh4UCxTdFdIRq-1" target="MiLcPNVyR3an7ZEGbD_Q-8">
          <mxGeometry x="-0.7143" y="-10" relative="1" as="geometry">
            <mxPoint y="1" as="offset" />
          </mxGeometry>
        </mxCell>
        <mxCell id="QBSgT8XTh4UCxTdFdIRq-1" value="&lt;font style=&quot;vertical-align: inherit&quot;&gt;&lt;font style=&quot;vertical-align: inherit&quot;&gt;Pedidos&lt;/font&gt;&lt;/font&gt;" style="rounded=1;arcSize=10;whiteSpace=wrap;html=1;align=center;" parent="1" vertex="1">
          <mxGeometry x="50" y="150" width="100" height="40" as="geometry" />
        </mxCell>
        <mxCell id="MiLcPNVyR3an7ZEGbD_Q-16" value="" style="edgeStyle=orthogonalEdgeStyle;rounded=0;orthogonalLoop=1;jettySize=auto;html=1;startArrow=none;startFill=0;endArrow=none;endFill=0;" edge="1" parent="1" source="QBSgT8XTh4UCxTdFdIRq-2" target="MiLcPNVyR3an7ZEGbD_Q-10">
          <mxGeometry relative="1" as="geometry" />
        </mxCell>
        <mxCell id="QBSgT8XTh4UCxTdFdIRq-2" value="&lt;font style=&quot;vertical-align: inherit&quot;&gt;&lt;font style=&quot;vertical-align: inherit&quot;&gt;Medicamentos&lt;/font&gt;&lt;/font&gt;" style="rounded=1;arcSize=10;whiteSpace=wrap;html=1;align=center;" parent="1" vertex="1">
          <mxGeometry x="50" y="370" width="100" height="40" as="geometry" />
        </mxCell>
        <mxCell id="MiLcPNVyR3an7ZEGbD_Q-56" style="edgeStyle=orthogonalEdgeStyle;rounded=0;orthogonalLoop=1;jettySize=auto;html=1;entryX=0;entryY=1;entryDx=0;entryDy=0;startArrow=none;startFill=0;endArrow=none;endFill=0;" edge="1" parent="1" source="QBSgT8XTh4UCxTdFdIRq-3" target="MiLcPNVyR3an7ZEGbD_Q-39">
          <mxGeometry relative="1" as="geometry">
            <Array as="points">
              <mxPoint x="660" y="340" />
              <mxPoint x="743" y="340" />
            </Array>
          </mxGeometry>
        </mxCell>
        <mxCell id="MiLcPNVyR3an7ZEGbD_Q-57" style="edgeStyle=orthogonalEdgeStyle;rounded=0;orthogonalLoop=1;jettySize=auto;html=1;entryX=0;entryY=1;entryDx=0;entryDy=0;startArrow=none;startFill=0;endArrow=none;endFill=0;" edge="1" parent="1" source="QBSgT8XTh4UCxTdFdIRq-3" target="MiLcPNVyR3an7ZEGbD_Q-38">
          <mxGeometry relative="1" as="geometry">
            <Array as="points">
              <mxPoint x="730" y="300" />
              <mxPoint x="730" y="317" />
            </Array>
          </mxGeometry>
        </mxCell>
        <mxCell id="QBSgT8XTh4UCxTdFdIRq-3" value="&lt;font style=&quot;vertical-align: inherit&quot;&gt;&lt;font style=&quot;vertical-align: inherit&quot;&gt;Fichas&lt;/font&gt;&lt;/font&gt;" style="rounded=1;arcSize=10;whiteSpace=wrap;html=1;align=center;" parent="1" vertex="1">
          <mxGeometry x="610" y="260" width="100" height="40" as="geometry" />
        </mxCell>
        <mxCell id="MiLcPNVyR3an7ZEGbD_Q-7" value="1" style="edgeStyle=orthogonalEdgeStyle;rounded=0;orthogonalLoop=1;jettySize=auto;html=1;startArrow=none;startFill=0;endArrow=none;endFill=0;" edge="1" parent="1" source="QBSgT8XTh4UCxTdFdIRq-4" target="MiLcPNVyR3an7ZEGbD_Q-2">
          <mxGeometry x="-0.7143" y="-10" relative="1" as="geometry">
            <mxPoint x="-1" as="offset" />
          </mxGeometry>
        </mxCell>
        <mxCell id="MiLcPNVyR3an7ZEGbD_Q-24" value="1" style="edgeStyle=orthogonalEdgeStyle;rounded=0;orthogonalLoop=1;jettySize=auto;html=1;startArrow=none;startFill=0;endArrow=none;endFill=0;" edge="1" parent="1" source="QBSgT8XTh4UCxTdFdIRq-4" target="MiLcPNVyR3an7ZEGbD_Q-23">
          <mxGeometry x="-0.5" y="10" relative="1" as="geometry">
            <mxPoint y="-1" as="offset" />
          </mxGeometry>
        </mxCell>
        <mxCell id="QBSgT8XTh4UCxTdFdIRq-4" value="&lt;font style=&quot;vertical-align: inherit&quot;&gt;&lt;font style=&quot;vertical-align: inherit&quot;&gt;Empresa de Produtos FarmacÃªuticos&lt;/font&gt;&lt;/font&gt;" style="rounded=1;arcSize=10;whiteSpace=wrap;html=1;align=center;" parent="1" vertex="1">
          <mxGeometry x="370" y="150" width="100" height="40" as="geometry" />
        </mxCell>
        <mxCell id="MiLcPNVyR3an7ZEGbD_Q-26" value="1" style="edgeStyle=orthogonalEdgeStyle;rounded=0;orthogonalLoop=1;jettySize=auto;html=1;startArrow=none;startFill=0;endArrow=none;endFill=0;" edge="1" parent="1" source="QBSgT8XTh4UCxTdFdIRq-5" target="MiLcPNVyR3an7ZEGbD_Q-22">
          <mxGeometry x="-0.931" y="-10" relative="1" as="geometry">
            <mxPoint as="offset" />
          </mxGeometry>
        </mxCell>
        <mxCell id="MiLcPNVyR3an7ZEGbD_Q-30" value="" style="edgeStyle=orthogonalEdgeStyle;rounded=0;orthogonalLoop=1;jettySize=auto;html=1;startArrow=none;startFill=0;endArrow=none;endFill=0;" edge="1" parent="1" source="QBSgT8XTh4UCxTdFdIRq-5" target="MiLcPNVyR3an7ZEGbD_Q-28">
          <mxGeometry relative="1" as="geometry" />
        </mxCell>
        <mxCell id="MiLcPNVyR3an7ZEGbD_Q-101" value="1" style="edgeStyle=orthogonalEdgeStyle;rounded=0;orthogonalLoop=1;jettySize=auto;html=1;entryX=0.5;entryY=1;entryDx=0;entryDy=0;startArrow=none;startFill=0;endArrow=none;endFill=0;" edge="1" parent="1" source="QBSgT8XTh4UCxTdFdIRq-5" target="MiLcPNVyR3an7ZEGbD_Q-9">
          <mxGeometry x="-0.8751" y="10" relative="1" as="geometry">
            <mxPoint as="offset" />
          </mxGeometry>
        </mxCell>
        <mxCell id="QBSgT8XTh4UCxTdFdIRq-5" value="&lt;font style=&quot;vertical-align: inherit&quot;&gt;&lt;font style=&quot;vertical-align: inherit&quot;&gt;Clientes&lt;/font&gt;&lt;/font&gt;" style="rounded=1;arcSize=10;whiteSpace=wrap;html=1;align=center;" parent="1" vertex="1">
          <mxGeometry x="375" y="310" width="100" height="40" as="geometry" />
        </mxCell>
        <mxCell id="MiLcPNVyR3an7ZEGbD_Q-13" value="N" style="edgeStyle=orthogonalEdgeStyle;rounded=0;orthogonalLoop=1;jettySize=auto;html=1;startArrow=none;startFill=0;endArrow=none;endFill=0;" edge="1" parent="1" source="MiLcPNVyR3an7ZEGbD_Q-2" target="QBSgT8XTh4UCxTdFdIRq-1">
          <mxGeometry x="0.6" y="-10" relative="1" as="geometry">
            <mxPoint as="offset" />
          </mxGeometry>
        </mxCell>
        <mxCell id="MiLcPNVyR3an7ZEGbD_Q-2" value="&lt;font style=&quot;vertical-align: inherit&quot;&gt;&lt;font style=&quot;vertical-align: inherit&quot;&gt;&lt;font style=&quot;vertical-align: inherit&quot;&gt;&lt;font style=&quot;vertical-align: inherit&quot;&gt;recebe&lt;/font&gt;&lt;/font&gt;&lt;/font&gt;&lt;/font&gt;" style="shape=rhombus;perimeter=rhombusPerimeter;whiteSpace=wrap;html=1;align=center;" vertex="1" parent="1">
          <mxGeometry x="200" y="150" width="100" height="40" as="geometry" />
        </mxCell>
        <mxCell id="MiLcPNVyR3an7ZEGbD_Q-15" value="N" style="edgeStyle=orthogonalEdgeStyle;rounded=0;orthogonalLoop=1;jettySize=auto;html=1;startArrow=none;startFill=0;endArrow=none;endFill=0;" edge="1" parent="1" source="MiLcPNVyR3an7ZEGbD_Q-8" target="QBSgT8XTh4UCxTdFdIRq-2">
          <mxGeometry x="0.7143" y="-10" relative="1" as="geometry">
            <mxPoint as="offset" />
          </mxGeometry>
        </mxCell>
        <mxCell id="MiLcPNVyR3an7ZEGbD_Q-8" value="&lt;font style=&quot;vertical-align: inherit&quot;&gt;&lt;font style=&quot;vertical-align: inherit&quot;&gt;&lt;font style=&quot;vertical-align: inherit&quot;&gt;&lt;font style=&quot;vertical-align: inherit&quot;&gt;possui&lt;/font&gt;&lt;/font&gt;&lt;/font&gt;&lt;/font&gt;" style="shape=rhombus;perimeter=rhombusPerimeter;whiteSpace=wrap;html=1;align=center;" vertex="1" parent="1">
          <mxGeometry x="50" y="260" width="100" height="40" as="geometry" />
        </mxCell>
        <mxCell id="MiLcPNVyR3an7ZEGbD_Q-102" value="N" style="edgeStyle=orthogonalEdgeStyle;rounded=0;orthogonalLoop=1;jettySize=auto;html=1;entryX=0;entryY=0.75;entryDx=0;entryDy=0;startArrow=none;startFill=0;endArrow=none;endFill=0;" edge="1" parent="1" source="MiLcPNVyR3an7ZEGbD_Q-9" target="QBSgT8XTh4UCxTdFdIRq-3">
          <mxGeometry x="0.5563" y="10" relative="1" as="geometry">
            <Array as="points">
              <mxPoint x="590" y="280" />
              <mxPoint x="590" y="290" />
            </Array>
            <mxPoint as="offset" />
          </mxGeometry>
        </mxCell>
        <mxCell id="MiLcPNVyR3an7ZEGbD_Q-9" value="&lt;font style=&quot;vertical-align: inherit&quot;&gt;&lt;font style=&quot;vertical-align: inherit&quot;&gt;&lt;font style=&quot;vertical-align: inherit&quot;&gt;&lt;font style=&quot;vertical-align: inherit&quot;&gt;possui&lt;/font&gt;&lt;/font&gt;&lt;/font&gt;&lt;/font&gt;" style="shape=rhombus;perimeter=rhombusPerimeter;whiteSpace=wrap;html=1;align=center;" vertex="1" parent="1">
          <mxGeometry x="500" y="270" width="70" height="30" as="geometry" />
        </mxCell>
        <mxCell id="MiLcPNVyR3an7ZEGbD_Q-18" style="edgeStyle=orthogonalEdgeStyle;rounded=0;orthogonalLoop=1;jettySize=auto;html=1;entryX=1;entryY=0.5;entryDx=0;entryDy=0;startArrow=none;startFill=0;endArrow=none;endFill=0;" edge="1" parent="1" source="MiLcPNVyR3an7ZEGbD_Q-10" target="MiLcPNVyR3an7ZEGbD_Q-12">
          <mxGeometry relative="1" as="geometry">
            <Array as="points">
              <mxPoint x="90" y="498" />
              <mxPoint x="70" y="498" />
              <mxPoint x="70" y="540" />
            </Array>
          </mxGeometry>
        </mxCell>
        <mxCell id="MiLcPNVyR3an7ZEGbD_Q-19" style="edgeStyle=orthogonalEdgeStyle;rounded=0;orthogonalLoop=1;jettySize=auto;html=1;entryX=0;entryY=0.5;entryDx=0;entryDy=0;startArrow=none;startFill=0;endArrow=none;endFill=0;" edge="1" parent="1" source="MiLcPNVyR3an7ZEGbD_Q-10" target="MiLcPNVyR3an7ZEGbD_Q-11">
          <mxGeometry relative="1" as="geometry">
            <Array as="points">
              <mxPoint x="110" y="498" />
              <mxPoint x="130" y="498" />
              <mxPoint x="130" y="540" />
            </Array>
          </mxGeometry>
        </mxCell>
        <mxCell id="MiLcPNVyR3an7ZEGbD_Q-10" value="" style="triangle;whiteSpace=wrap;html=1;rotation=-90;" vertex="1" parent="1">
          <mxGeometry x="85" y="440" width="30" height="40" as="geometry" />
        </mxCell>
        <mxCell id="MiLcPNVyR3an7ZEGbD_Q-11" value="&lt;font style=&quot;vertical-align: inherit&quot;&gt;&lt;font style=&quot;vertical-align: inherit&quot;&gt;GenÃ©ricos&lt;/font&gt;&lt;/font&gt;" style="rounded=1;arcSize=10;whiteSpace=wrap;html=1;align=center;" vertex="1" parent="1">
          <mxGeometry x="150" y="520" width="100" height="40" as="geometry" />
        </mxCell>
        <mxCell id="MiLcPNVyR3an7ZEGbD_Q-12" value="&lt;font style=&quot;vertical-align: inherit&quot;&gt;&lt;font style=&quot;vertical-align: inherit&quot;&gt;Marcas&lt;/font&gt;&lt;/font&gt;" style="rounded=1;arcSize=10;whiteSpace=wrap;html=1;align=center;" vertex="1" parent="1">
          <mxGeometry x="-60" y="520" width="110" height="40" as="geometry" />
        </mxCell>
        <mxCell id="MiLcPNVyR3an7ZEGbD_Q-27" value="N" style="edgeStyle=orthogonalEdgeStyle;rounded=0;orthogonalLoop=1;jettySize=auto;html=1;startArrow=none;startFill=0;endArrow=none;endFill=0;entryX=1;entryY=0.75;entryDx=0;entryDy=0;" edge="1" parent="1" source="MiLcPNVyR3an7ZEGbD_Q-22" target="QBSgT8XTh4UCxTdFdIRq-1">
          <mxGeometry x="0.8822" y="10" relative="1" as="geometry">
            <mxPoint x="180" y="200" as="targetPoint" />
            <mxPoint as="offset" />
          </mxGeometry>
        </mxCell>
        <mxCell id="MiLcPNVyR3an7ZEGbD_Q-22" value="&lt;font style=&quot;vertical-align: inherit&quot;&gt;&lt;font style=&quot;vertical-align: inherit&quot;&gt;&lt;font style=&quot;vertical-align: inherit&quot;&gt;&lt;font style=&quot;vertical-align: inherit&quot;&gt;realiza&lt;/font&gt;&lt;/font&gt;&lt;/font&gt;&lt;/font&gt;" style="shape=rhombus;perimeter=rhombusPerimeter;whiteSpace=wrap;html=1;align=center;" vertex="1" parent="1">
          <mxGeometry x="220" y="260" width="80" height="40" as="geometry" />
        </mxCell>
        <mxCell id="MiLcPNVyR3an7ZEGbD_Q-25" value="N" style="edgeStyle=orthogonalEdgeStyle;rounded=0;orthogonalLoop=1;jettySize=auto;html=1;startArrow=none;startFill=0;endArrow=none;endFill=0;" edge="1" parent="1" source="MiLcPNVyR3an7ZEGbD_Q-23" target="QBSgT8XTh4UCxTdFdIRq-5">
          <mxGeometry x="0.5032" y="10" relative="1" as="geometry">
            <Array as="points">
              <mxPoint x="420" y="300" />
              <mxPoint x="420" y="300" />
            </Array>
            <mxPoint y="-1" as="offset" />
          </mxGeometry>
        </mxCell>
        <mxCell id="MiLcPNVyR3an7ZEGbD_Q-23" value="&lt;font style=&quot;vertical-align: inherit&quot;&gt;&lt;font style=&quot;vertical-align: inherit&quot;&gt;&lt;font style=&quot;vertical-align: inherit&quot;&gt;&lt;font style=&quot;vertical-align: inherit&quot;&gt;possui&lt;/font&gt;&lt;/font&gt;&lt;/font&gt;&lt;/font&gt;" style="shape=rhombus;perimeter=rhombusPerimeter;whiteSpace=wrap;html=1;align=center;" vertex="1" parent="1">
          <mxGeometry x="370" y="230" width="100" height="40" as="geometry" />
        </mxCell>
        <mxCell id="MiLcPNVyR3an7ZEGbD_Q-33" style="edgeStyle=orthogonalEdgeStyle;rounded=0;orthogonalLoop=1;jettySize=auto;html=1;entryX=1;entryY=0.5;entryDx=0;entryDy=0;startArrow=none;startFill=0;endArrow=none;endFill=0;" edge="1" parent="1" target="MiLcPNVyR3an7ZEGbD_Q-31">
          <mxGeometry relative="1" as="geometry">
            <mxPoint x="420" y="415" as="sourcePoint" />
            <Array as="points">
              <mxPoint x="420" y="470" />
            </Array>
          </mxGeometry>
        </mxCell>
        <mxCell id="MiLcPNVyR3an7ZEGbD_Q-35" style="edgeStyle=orthogonalEdgeStyle;rounded=0;orthogonalLoop=1;jettySize=auto;html=1;entryX=0;entryY=0.5;entryDx=0;entryDy=0;startArrow=none;startFill=0;endArrow=none;endFill=0;exitX=0;exitY=0.5;exitDx=0;exitDy=0;" edge="1" parent="1" source="MiLcPNVyR3an7ZEGbD_Q-28" target="MiLcPNVyR3an7ZEGbD_Q-32">
          <mxGeometry relative="1" as="geometry">
            <Array as="points">
              <mxPoint x="430" y="415" />
              <mxPoint x="430" y="470" />
            </Array>
          </mxGeometry>
        </mxCell>
        <mxCell id="MiLcPNVyR3an7ZEGbD_Q-28" value="" style="triangle;whiteSpace=wrap;html=1;rotation=-90;" vertex="1" parent="1">
          <mxGeometry x="410" y="380" width="30" height="40" as="geometry" />
        </mxCell>
        <mxCell id="MiLcPNVyR3an7ZEGbD_Q-31" value="&lt;font style=&quot;vertical-align: inherit&quot;&gt;&lt;font style=&quot;vertical-align: inherit&quot;&gt;Drogarias&lt;/font&gt;&lt;/font&gt;" style="rounded=1;arcSize=10;whiteSpace=wrap;html=1;align=center;" vertex="1" parent="1">
          <mxGeometry x="310" y="450" width="100" height="40" as="geometry" />
        </mxCell>
        <mxCell id="MiLcPNVyR3an7ZEGbD_Q-32" value="&lt;font style=&quot;vertical-align: inherit&quot;&gt;&lt;font style=&quot;vertical-align: inherit&quot;&gt;FarmÃ¡cias&lt;/font&gt;&lt;/font&gt;" style="rounded=1;arcSize=10;whiteSpace=wrap;html=1;align=center;" vertex="1" parent="1">
          <mxGeometry x="440" y="450" width="100" height="40" as="geometry" />
        </mxCell>
        <mxCell id="MiLcPNVyR3an7ZEGbD_Q-53" style="edgeStyle=orthogonalEdgeStyle;rounded=0;orthogonalLoop=1;jettySize=auto;html=1;entryX=1;entryY=0.25;entryDx=0;entryDy=0;startArrow=none;startFill=0;endArrow=none;endFill=0;" edge="1" parent="1" source="MiLcPNVyR3an7ZEGbD_Q-36" target="QBSgT8XTh4UCxTdFdIRq-3">
          <mxGeometry relative="1" as="geometry">
            <Array as="points">
              <mxPoint x="710" y="250" />
            </Array>
          </mxGeometry>
        </mxCell>
        <mxCell id="MiLcPNVyR3an7ZEGbD_Q-36" value="Estado" style="ellipse;whiteSpace=wrap;html=1;align=left;spacingLeft=21;" vertex="1" parent="1">
          <mxGeometry x="740" y="240" width="20" height="20" as="geometry" />
        </mxCell>
        <mxCell id="MiLcPNVyR3an7ZEGbD_Q-54" value="" style="edgeStyle=orthogonalEdgeStyle;rounded=0;orthogonalLoop=1;jettySize=auto;html=1;startArrow=none;startFill=0;endArrow=none;endFill=0;" edge="1" parent="1" source="MiLcPNVyR3an7ZEGbD_Q-37" target="QBSgT8XTh4UCxTdFdIRq-3">
          <mxGeometry relative="1" as="geometry" />
        </mxCell>
        <mxCell id="MiLcPNVyR3an7ZEGbD_Q-37" value="CEP" style="ellipse;whiteSpace=wrap;html=1;align=left;spacingLeft=21;" vertex="1" parent="1">
          <mxGeometry x="740" y="270" width="20" height="20" as="geometry" />
        </mxCell>
        <mxCell id="MiLcPNVyR3an7ZEGbD_Q-38" value="Pessoa Contato" style="ellipse;whiteSpace=wrap;html=1;align=left;spacingLeft=21;" vertex="1" parent="1">
          <mxGeometry x="740" y="300" width="20" height="20" as="geometry" />
        </mxCell>
        <mxCell id="MiLcPNVyR3an7ZEGbD_Q-39" value="Cidade" style="ellipse;whiteSpace=wrap;html=1;align=left;spacingLeft=21;" vertex="1" parent="1">
          <mxGeometry x="740" y="330" width="20" height="20" as="geometry" />
        </mxCell>
        <mxCell id="MiLcPNVyR3an7ZEGbD_Q-60" style="edgeStyle=orthogonalEdgeStyle;rounded=0;orthogonalLoop=1;jettySize=auto;html=1;entryX=0.25;entryY=1;entryDx=0;entryDy=0;startArrow=none;startFill=0;endArrow=none;endFill=0;" edge="1" parent="1" source="MiLcPNVyR3an7ZEGbD_Q-40" target="QBSgT8XTh4UCxTdFdIRq-3">
          <mxGeometry relative="1" as="geometry">
            <Array as="points">
              <mxPoint x="630" y="430" />
              <mxPoint x="630" y="300" />
            </Array>
          </mxGeometry>
        </mxCell>
        <mxCell id="MiLcPNVyR3an7ZEGbD_Q-40" value="EndereÃ§o" style="ellipse;whiteSpace=wrap;html=1;align=left;spacingLeft=21;" vertex="1" parent="1">
          <mxGeometry x="740" y="420" width="20" height="20" as="geometry" />
        </mxCell>
        <mxCell id="MiLcPNVyR3an7ZEGbD_Q-59" style="edgeStyle=orthogonalEdgeStyle;rounded=0;orthogonalLoop=1;jettySize=auto;html=1;startArrow=none;startFill=0;endArrow=none;endFill=0;entryX=0.25;entryY=1;entryDx=0;entryDy=0;" edge="1" parent="1" source="MiLcPNVyR3an7ZEGbD_Q-41" target="QBSgT8XTh4UCxTdFdIRq-3">
          <mxGeometry relative="1" as="geometry">
            <mxPoint x="640" y="310" as="targetPoint" />
            <Array as="points">
              <mxPoint x="640" y="400" />
              <mxPoint x="640" y="300" />
            </Array>
          </mxGeometry>
        </mxCell>
        <mxCell id="MiLcPNVyR3an7ZEGbD_Q-41" value="Nome" style="ellipse;whiteSpace=wrap;html=1;align=left;spacingLeft=21;" vertex="1" parent="1">
          <mxGeometry x="740" y="390" width="20" height="20" as="geometry" />
        </mxCell>
        <mxCell id="MiLcPNVyR3an7ZEGbD_Q-76" style="edgeStyle=orthogonalEdgeStyle;rounded=0;orthogonalLoop=1;jettySize=auto;html=1;entryX=1;entryY=1;entryDx=0;entryDy=0;startArrow=none;startFill=0;endArrow=none;endFill=0;" edge="1" parent="1" source="MiLcPNVyR3an7ZEGbD_Q-42" target="MiLcPNVyR3an7ZEGbD_Q-11">
          <mxGeometry relative="1" as="geometry" />
        </mxCell>
        <mxCell id="MiLcPNVyR3an7ZEGbD_Q-42" value="PrincÃ­pio Ativo" style="ellipse;whiteSpace=wrap;html=1;align=left;spacingLeft=21;" vertex="1" parent="1">
          <mxGeometry x="240" y="580" width="20" height="20" as="geometry" />
        </mxCell>
        <mxCell id="MiLcPNVyR3an7ZEGbD_Q-58" style="edgeStyle=orthogonalEdgeStyle;rounded=0;orthogonalLoop=1;jettySize=auto;html=1;startArrow=none;startFill=0;endArrow=none;endFill=0;" edge="1" parent="1" source="MiLcPNVyR3an7ZEGbD_Q-43">
          <mxGeometry relative="1" as="geometry">
            <mxPoint x="650" y="300" as="targetPoint" />
          </mxGeometry>
        </mxCell>
        <mxCell id="MiLcPNVyR3an7ZEGbD_Q-43" value="CNPJ" style="ellipse;whiteSpace=wrap;html=1;align=left;spacingLeft=21;fontStyle=4" vertex="1" parent="1">
          <mxGeometry x="740" y="360" width="20" height="20" as="geometry" />
        </mxCell>
        <mxCell id="MiLcPNVyR3an7ZEGbD_Q-61" style="edgeStyle=orthogonalEdgeStyle;rounded=0;orthogonalLoop=1;jettySize=auto;html=1;entryX=0.108;entryY=1.04;entryDx=0;entryDy=0;entryPerimeter=0;startArrow=none;startFill=0;endArrow=none;endFill=0;" edge="1" parent="1" source="MiLcPNVyR3an7ZEGbD_Q-47" target="QBSgT8XTh4UCxTdFdIRq-3">
          <mxGeometry relative="1" as="geometry" />
        </mxCell>
        <mxCell id="MiLcPNVyR3an7ZEGbD_Q-47" value="Telefone" style="ellipse;shape=doubleEllipse;margin=3;whiteSpace=wrap;html=1;align=left;spacingLeft=28;" vertex="1" parent="1">
          <mxGeometry x="740" y="450" width="30" height="30" as="geometry" />
        </mxCell>
        <mxCell id="MiLcPNVyR3an7ZEGbD_Q-77" style="edgeStyle=orthogonalEdgeStyle;rounded=0;orthogonalLoop=1;jettySize=auto;html=1;entryX=0.75;entryY=1;entryDx=0;entryDy=0;startArrow=none;startFill=0;endArrow=none;endFill=0;" edge="1" parent="1" source="MiLcPNVyR3an7ZEGbD_Q-64" target="MiLcPNVyR3an7ZEGbD_Q-11">
          <mxGeometry relative="1" as="geometry">
            <Array as="points">
              <mxPoint x="230" y="560" />
            </Array>
          </mxGeometry>
        </mxCell>
        <mxCell id="MiLcPNVyR3an7ZEGbD_Q-64" value="Data de Validade" style="ellipse;whiteSpace=wrap;html=1;align=left;spacingLeft=21;" vertex="1" parent="1">
          <mxGeometry x="220" y="610" width="20" height="20" as="geometry" />
        </mxCell>
        <mxCell id="MiLcPNVyR3an7ZEGbD_Q-78" style="edgeStyle=orthogonalEdgeStyle;rounded=0;orthogonalLoop=1;jettySize=auto;html=1;startArrow=none;startFill=0;endArrow=none;endFill=0;" edge="1" parent="1" source="MiLcPNVyR3an7ZEGbD_Q-65" target="MiLcPNVyR3an7ZEGbD_Q-11">
          <mxGeometry relative="1" as="geometry">
            <Array as="points">
              <mxPoint x="210" y="570" />
              <mxPoint x="210" y="570" />
            </Array>
          </mxGeometry>
        </mxCell>
        <mxCell id="MiLcPNVyR3an7ZEGbD_Q-65" value="Nome do LaboratÃ³rio" style="ellipse;whiteSpace=wrap;html=1;align=left;spacingLeft=21;" vertex="1" parent="1">
          <mxGeometry x="200" y="640" width="20" height="20" as="geometry" />
        </mxCell>
        <mxCell id="MiLcPNVyR3an7ZEGbD_Q-97" style="edgeStyle=orthogonalEdgeStyle;rounded=0;orthogonalLoop=1;jettySize=auto;html=1;entryX=0.25;entryY=0;entryDx=0;entryDy=0;startArrow=none;startFill=0;endArrow=none;endFill=0;" edge="1" parent="1" source="MiLcPNVyR3an7ZEGbD_Q-68" target="QBSgT8XTh4UCxTdFdIRq-1">
          <mxGeometry relative="1" as="geometry" />
        </mxCell>
        <mxCell id="MiLcPNVyR3an7ZEGbD_Q-68" value="Nome do Medicamento" style="ellipse;whiteSpace=wrap;html=1;align=left;spacingLeft=-73;spacingRight=5;" vertex="1" parent="1">
          <mxGeometry x="10" y="90" width="20" height="20" as="geometry" />
        </mxCell>
        <mxCell id="MiLcPNVyR3an7ZEGbD_Q-95" value="" style="edgeStyle=orthogonalEdgeStyle;rounded=0;orthogonalLoop=1;jettySize=auto;html=1;startArrow=none;startFill=0;endArrow=none;endFill=0;" edge="1" parent="1" source="MiLcPNVyR3an7ZEGbD_Q-70" target="QBSgT8XTh4UCxTdFdIRq-1">
          <mxGeometry relative="1" as="geometry" />
        </mxCell>
        <mxCell id="MiLcPNVyR3an7ZEGbD_Q-70" value="Nome do Cliente" style="ellipse;whiteSpace=wrap;html=1;align=right;spacingLeft=0;spacingRight=21;" vertex="1" parent="1">
          <mxGeometry x="10" y="170" width="20" height="20" as="geometry" />
        </mxCell>
        <mxCell id="MiLcPNVyR3an7ZEGbD_Q-83" style="edgeStyle=orthogonalEdgeStyle;rounded=0;orthogonalLoop=1;jettySize=auto;html=1;entryX=0;entryY=1;entryDx=0;entryDy=0;startArrow=none;startFill=0;endArrow=none;endFill=0;" edge="1" parent="1" source="MiLcPNVyR3an7ZEGbD_Q-71" target="MiLcPNVyR3an7ZEGbD_Q-12">
          <mxGeometry relative="1" as="geometry">
            <Array as="points">
              <mxPoint x="-50" y="560" />
            </Array>
          </mxGeometry>
        </mxCell>
        <mxCell id="MiLcPNVyR3an7ZEGbD_Q-71" value="Cor da Tarja" style="ellipse;whiteSpace=wrap;html=1;align=left;spacingLeft=21;direction=south;" vertex="1" parent="1">
          <mxGeometry x="-60" y="670" width="20" height="20" as="geometry" />
        </mxCell>
        <mxCell id="MiLcPNVyR3an7ZEGbD_Q-82" style="edgeStyle=orthogonalEdgeStyle;rounded=0;orthogonalLoop=1;jettySize=auto;html=1;entryX=0.39;entryY=0.981;entryDx=0;entryDy=0;entryPerimeter=0;startArrow=none;startFill=0;endArrow=none;endFill=0;" edge="1" parent="1" source="MiLcPNVyR3an7ZEGbD_Q-72" target="MiLcPNVyR3an7ZEGbD_Q-12">
          <mxGeometry relative="1" as="geometry">
            <Array as="points">
              <mxPoint x="-10" y="559" />
            </Array>
          </mxGeometry>
        </mxCell>
        <mxCell id="MiLcPNVyR3an7ZEGbD_Q-72" value="Nome do LaboratÃ³rio" style="ellipse;whiteSpace=wrap;html=1;align=left;spacingLeft=21;" vertex="1" parent="1">
          <mxGeometry x="-20" y="640" width="20" height="20" as="geometry" />
        </mxCell>
        <mxCell id="MiLcPNVyR3an7ZEGbD_Q-81" style="edgeStyle=orthogonalEdgeStyle;rounded=0;orthogonalLoop=1;jettySize=auto;html=1;startArrow=none;startFill=0;endArrow=none;endFill=0;" edge="1" parent="1" source="MiLcPNVyR3an7ZEGbD_Q-73">
          <mxGeometry relative="1" as="geometry">
            <mxPoint x="10" y="560" as="targetPoint" />
          </mxGeometry>
        </mxCell>
        <mxCell id="MiLcPNVyR3an7ZEGbD_Q-73" value="Data de Validade" style="ellipse;whiteSpace=wrap;html=1;align=left;spacingLeft=21;" vertex="1" parent="1">
          <mxGeometry y="610" width="20" height="20" as="geometry" />
        </mxCell>
        <mxCell id="MiLcPNVyR3an7ZEGbD_Q-88" value="" style="edgeStyle=orthogonalEdgeStyle;rounded=0;orthogonalLoop=1;jettySize=auto;html=1;startArrow=none;startFill=0;endArrow=none;endFill=0;" edge="1" parent="1" source="MiLcPNVyR3an7ZEGbD_Q-74">
          <mxGeometry relative="1" as="geometry">
            <mxPoint x="30" y="570" as="targetPoint" />
          </mxGeometry>
        </mxCell>
        <mxCell id="MiLcPNVyR3an7ZEGbD_Q-74" value="Nome do Medicamento" style="ellipse;whiteSpace=wrap;html=1;align=left;spacingLeft=21;" vertex="1" parent="1">
          <mxGeometry x="20" y="580" width="20" height="20" as="geometry" />
        </mxCell>
        <mxCell id="MiLcPNVyR3an7ZEGbD_Q-96" style="edgeStyle=orthogonalEdgeStyle;rounded=0;orthogonalLoop=1;jettySize=auto;html=1;startArrow=none;startFill=0;endArrow=none;endFill=0;" edge="1" parent="1" source="MiLcPNVyR3an7ZEGbD_Q-91" target="QBSgT8XTh4UCxTdFdIRq-1">
          <mxGeometry relative="1" as="geometry" />
        </mxCell>
        <mxCell id="MiLcPNVyR3an7ZEGbD_Q-91" value="Data do Pedido" style="ellipse;whiteSpace=wrap;html=1;align=left;spacingLeft=-49;spacingRight=9;" vertex="1" parent="1">
          <mxGeometry x="10" y="130" width="20" height="20" as="geometry" />
        </mxCell>
        <mxCell id="MiLcPNVyR3an7ZEGbD_Q-99" style="edgeStyle=orthogonalEdgeStyle;rounded=0;orthogonalLoop=1;jettySize=auto;html=1;entryX=0.602;entryY=-0.063;entryDx=0;entryDy=0;entryPerimeter=0;startArrow=none;startFill=0;endArrow=none;endFill=0;" edge="1" parent="1" source="MiLcPNVyR3an7ZEGbD_Q-93" target="QBSgT8XTh4UCxTdFdIRq-1">
          <mxGeometry relative="1" as="geometry" />
        </mxCell>
        <mxCell id="MiLcPNVyR3an7ZEGbD_Q-93" value="PreÃ§o" style="ellipse;whiteSpace=wrap;html=1;align=left;spacingLeft=-49;spacingRight=5;" vertex="1" parent="1">
          <mxGeometry x="10" y="30" width="20" height="20" as="geometry" />
        </mxCell>
        <mxCell id="MiLcPNVyR3an7ZEGbD_Q-98" style="edgeStyle=orthogonalEdgeStyle;rounded=0;orthogonalLoop=1;jettySize=auto;html=1;entryX=0.402;entryY=-0.063;entryDx=0;entryDy=0;entryPerimeter=0;startArrow=none;startFill=0;endArrow=none;endFill=0;" edge="1" parent="1" source="MiLcPNVyR3an7ZEGbD_Q-94" target="QBSgT8XTh4UCxTdFdIRq-1">
          <mxGeometry relative="1" as="geometry" />
        </mxCell>
        <mxCell id="MiLcPNVyR3an7ZEGbD_Q-94" value="Quantidade" style="ellipse;whiteSpace=wrap;html=1;align=left;spacingLeft=-68;spacingRight=5;" vertex="1" parent="1">
          <mxGeometry x="10" y="60" width="20" height="20" as="geometry" />
        </mxCell>
      </root>
    </mxGraphModel>
  </diagram>
</mxfile>
